# xmcd
#
# Track frame offsets:
#	150
#	18214
#	39342
#	63571
#	85279
#	106058
#	136992
#	154849
#	176022
#	200262
#	221942
#	242774
#
# Disc length: 3649 seconds
#
# Revision: 1
# Processed by: cddbd v1.5.2PL0 Copyright (c) Steve Scherf et al.
# Submitted via: audiograbber 1.83.01
#
DISCID=a00e3f0c
DTITLE=Dixie Chicks - CB20382
DYEAR=1900
DGENRE=Country
TTITLE0=Tortured, Tangled Hearts (Vocal)
TTITLE1=Truth No.2 (Vocal)
TTITLE2=More  Love (Vocal)
TTITLE3=Godspeed (Sweet Dreams) (Vocal)
TTITLE4=I Believe In Love (Vocal)
TTITLE5=Top Of The World (Vocal)
TTITLE6=Tortured, Tangled Hearts
TTITLE7=Truth No.2
TTITLE8=More Love
TTITLE9=Godspeed (Sweet Dreams)
TTITLE10=I Believe In Love
TTITLE11=Top Of The World
EXTD=
EXTT0=
EXTT1=
EXTT2=
EXTT3=
EXTT4=
EXTT5=
EXTT6=
EXTT7=
EXTT8=
EXTT9=
EXTT10=
EXTT11=
PLAYORDER=
